<?xml version="1.0" standalone="no"?>
<!DOCTYPE svg PUBLIC "-//W3C//DTD SVG 20010904//EN"
 "http://www.w3.org/TR/2001/REC-SVG-20010904/DTD/svg10.dtd">
<svg version="1.0" xmlns="http://www.w3.org/2000/svg"
 width="700.000000pt" height="700.000000pt" viewBox="0 0 700.000000 700.000000"
 preserveAspectRatio="xMidYMid meet">
<metadata>
Created by potrace 1.14, written by Peter Selinger 2001-2017
</metadata>
<g transform="translate(0.000000,700.000000) scale(0.100000,-0.100000)"
fill="#000000" stroke="none">
<path d="M2750 6578 c-28 -19 -68 -93 -248 -453 -172 -345 -215 -438 -215
-470 0 -32 33 -107 162 -364 147 -293 161 -325 147 -340 -41 -45 -46 -82 -46
-330 l0 -239 -502 -312 c-277 -172 -516 -326 -533 -342 l-30 -28 -3 -1334 -2
-1333 22 -33 c18 -26 133 -96 513 -314 l490 -281 995 0 995 0 490 281 c380
218 495 288 513 314 l22 33 0 1321 c0 1283 -1 1322 -19 1352 -14 24 -153 115
-535 354 l-516 322 0 240 c0 249 -5 281 -45 322 -18 18 -14 29 143 342 138
275 162 331 162 369 0 39 -30 105 -215 476 -183 364 -221 433 -248 449 -31 19
-55 20 -748 20 l-716 0 -33 -22z m1263 -575 c104 -211 158 -329 157 -349 0
-19 -49 -129 -129 -290 l-130 -259 0 290 c-1 325 -4 340 -72 380 -32 19 -52
20 -339 20 -442 0 -410 36 -410 -457 l0 -348 -90 0 -90 0 -166 332 -166 333
166 332 166 333 473 0 473 0 157 -317z m-923 -2045 c0 -183 2 -218 18 -247 30
-60 62 -76 163 -79 l89 -4 0 -294 c0 -162 -2 -294 -4 -294 -2 0 -68 24 -147
54 -179 68 -349 119 -479 146 -333 68 -650 31 -913 -108 -29 -15 -55 -28 -59
-30 -5 -2 -8 100 -8 226 l0 230 278 172 c152 95 374 233 492 307 l214 133 178
0 178 0 0 -212z m1668 -95 l492 -308 0 -222 0 -223 -57 37 c-332 212 -790 261
-1198 127 -91 -31 -240 -98 -302 -137 -24 -15 -45 -27 -48 -27 -3 0 -5 117 -5
260 l0 260 75 0 c90 0 134 16 166 61 23 33 24 40 27 257 l3 222 178 0 177 0
492 -307z"/>
</g>
</svg>
